HIERARCHY
ROOT hip
{
  OFFSET 0 0 0
  CHANNELS 6 Xposition Yposition Zposition Zrotation Yrotation Xrotation
  JOINT abdomen
  {
    OFFSET 0 20.6881 -0.73152
    CHANNELS 3 Zrotation Xrotation Yrotation
    JOINT chest
    {
      OFFSET 0 11.7043 -0.48768
      CHANNELS 3 Zrotation Xrotation Yrotation
      JOINT neck
      {
        OFFSET 0 22.1894 -2.19456
        CHANNELS 3 Zrotation Xrotation Yrotation
        JOINT head
        {
          OFFSET -0.24384 7.07133 1.2192
          CHANNELS 3 Zrotation Xrotation Yrotation
          JOINT leftEye
          {
            OFFSET 4.14528 8.04674 8.04672
            CHANNELS 3 Zrotation Xrotation Yrotation
            End Site
            {
              OFFSET 1 0 0
            }
          }
          JOINT rightEye
          {
            OFFSET -3.6576 8.04674 8.04672
            CHANNELS 3 Zrotation Xrotation Yrotation
            End Site
            {
              OFFSET 1 0 0
            }
          }
        }
      }
      JOINT rCollar
      {
        OFFSET -2.68224 19.2634 -4.8768
        CHANNELS 3 Zrotation Xrotation Yrotation
        JOINT rShldr
        {
          OFFSET -8.77824 -1.95073 1.46304
          CHANNELS 3 Zrotation Xrotation Yrotation
          JOINT rForeArm
          {
            OFFSET -28.1742 -1.7115 0.48768
            CHANNELS 3 Zrotation Xrotation Yrotation
            JOINT rHand
            {
              OFFSET -22.5879 0.773209 7.07136
              CHANNELS 3 Zrotation Xrotation Yrotation
              JOINT rThumb1
              {
                OFFSET -1.2192 -0.487915 3.41376
                CHANNELS 3 Zrotation Xrotation Yrotation
                JOINT rThumb2
                {
                  OFFSET -3.37035 -0.52449 3.41376
                  CHANNELS 3 Zrotation Xrotation Yrotation
                  End Site
                  {
                    OFFSET -1.78271 -1.18214 1.43049
                  }
                }
              }
              JOINT rIndex1
              {
                OFFSET -7.75947 0.938293 5.60832
                CHANNELS 3 Zrotation Xrotation Yrotation
                JOINT rIndex2
                {
                  OFFSET -2.54057 -0.884171 1.56538
                  CHANNELS 3 Zrotation Xrotation Yrotation
                  End Site
                  {
                    OFFSET -1.62519 -0.234802 1.16502
                  }
                }
              }
              JOINT rMid1
              {
                OFFSET -8.24714 1.18213 3.41376
                CHANNELS 3 Zrotation Xrotation Yrotation
                JOINT rMid2
                {
                  OFFSET -3.10165 -0.590103 1.0647
                  CHANNELS 3 Zrotation Xrotation Yrotation
                  End Site
                  {
                    OFFSET -2.48547 -0.328903 0.83742
                  }
                }
              }
              JOINT rRing1
              {
                OFFSET -8.82822 0.546677 1.51678
                CHANNELS 3 Zrotation Xrotation Yrotation
                JOINT rRing2
                {
                  OFFSET -2.60934 -0.819778 -0.0198488
                  CHANNELS 3 Zrotation Xrotation Yrotation
                  End Site
                  {
                    OFFSET -2.33842 -0.294052 0.168128
                  }
                }
              }
              JOINT rPinky1
              {
                OFFSET -8.27202 -0.0477905 -0.4584
                CHANNELS 3 Zrotation Xrotation Yrotation
                JOINT rPinky2
                {
                  OFFSET -1.82734 -0.647385 -0.700984
                  CHANNELS 3 Zrotation Xrotation Yrotation
                  End Site
                  {
                    OFFSET -1.69225 -0.51767 -0.607171
                  }
                }
              }
            }
          }
        }
      }
      JOINT lCollar
      {
        OFFSET 2.68224 19.2634 -4.8768
        CHANNELS 3 Zrotation Xrotation Yrotation
        JOINT lShldr
        {
          OFFSET 8.77824 -1.95073 1.46304
          CHANNELS 3 Zrotation Xrotation Yrotation
          JOINT lForeArm
          {
            OFFSET 28.1742 -1.7115 0.48768
            CHANNELS 3 Zrotation Xrotation Yrotation
            JOINT lHand
            {
              OFFSET 22.5879 0.773209 7.07136
              CHANNELS 3 Zrotation Xrotation Yrotation
              JOINT lThumb1
              {
                OFFSET 1.2192 -0.487915 3.41376
                CHANNELS 3 Zrotation Xrotation Yrotation
                JOINT lThumb2
                {
                  OFFSET 3.37035 -0.52449 3.41376
                  CHANNELS 3 Zrotation Xrotation Yrotation
                  End Site
                  {
                    OFFSET 1.78271 -1.18214 1.43049
                  }
                }
              }
              JOINT lIndex1
              {
                OFFSET 7.75947 0.938293 5.60832
                CHANNELS 3 Zrotation Xrotation Yrotation
                JOINT lIndex2
                {
                  OFFSET 2.54057 -0.884171 1.56538
                  CHANNELS 3 Zrotation Xrotation Yrotation
                  End Site
                  {
                    OFFSET 1.62519 -0.234802 1.16502
                  }
                }
              }
              JOINT lMid1
              {
                OFFSET 8.24714 1.18213 3.41376
                CHANNELS 3 Zrotation Xrotation Yrotation
                JOINT lMid2
                {
                  OFFSET 3.10165 -0.590103 1.0647
                  CHANNELS 3 Zrotation Xrotation Yrotation
                  End Site
                  {
                    OFFSET 2.48547 -0.328903 0.83742
                  }
                }
              }
              JOINT lRing1
              {
                OFFSET 8.82822 0.546677 1.51678
                CHANNELS 3 Zrotation Xrotation Yrotation
                JOINT lRing2
                {
                  OFFSET 2.60934 -0.819778 -0.0198488
                  CHANNELS 3 Zrotation Xrotation Yrotation
                  End Site
                  {
                    OFFSET 2.33842 -0.294052 0.168128
                  }
                }
              }
              JOINT lPinky1
              {
                OFFSET 8.27202 -0.0477905 -0.4584
                CHANNELS 3 Zrotation Xrotation Yrotation
                JOINT lPinky2
                {
                  OFFSET 1.82734 -0.647385 -0.700984
                  CHANNELS 3 Zrotation Xrotation Yrotation
                  End Site
                  {
                    OFFSET 1.69225 -0.51767 -0.607171
                  }
                }
              }
            }
          }
        }
      }
    }
  }
  JOINT rButtock
  {
    OFFSET -8.77824 4.35084 1.2192
    CHANNELS 3 Zrotation Xrotation Yrotation
    JOINT rThigh
    {
      OFFSET 0 -1.70687 -2.19456
      CHANNELS 3 Zrotation Xrotation Yrotation
      JOINT rShin
      {
        OFFSET 0 -36.8199 0.73152
        CHANNELS 3 Zrotation Xrotation Yrotation
        JOINT rFoot
        {
          OFFSET 0.73152 -45.1104 -5.12064
          CHANNELS 3 Zrotation Xrotation Yrotation
          End Site
          {
            OFFSET -1.1221 -3.69964 12.103
          }
        }
      }
    }
  }
  JOINT lButtock
  {
    OFFSET 8.77824 4.35084 1.2192
    CHANNELS 3 Zrotation Xrotation Yrotation
    JOINT lThigh
    {
      OFFSET 0 -1.70687 -2.19456
      CHANNELS 3 Zrotation Xrotation Yrotation
      JOINT lShin
      {
        OFFSET 0 -36.8199 0.73152
        CHANNELS 3 Zrotation Xrotation Yrotation
        JOINT lFoot
        {
          OFFSET -0.73152 -45.1104 -5.12064
          CHANNELS 3 Zrotation Xrotation Yrotation
          End Site
          {
            OFFSET 1.1221 -3.69964 12.103
          }
        }
      }
    }
  }
}
MOTION
Frames:	8
Frame Time:	0.03333
0.0 0.0 0.0 0.0 0.0 0.0 0.0 0.0 0.0 0.0 0.0 0.0 0.0 0.0 0.0 0.0 0.0 0.0 0.0 0.0 0.0 0.0 0.0 0.0 0.0 0.0 0.0 0.0 0.0 0.0 0.0 0.0 0.0 0.0 0.0 0.0 0.0 0.0 0.0 0.0 0.0 0.0 0.0 0.0 0.0 0.0 0.0 0.0 0.0 0.0 0.0 0.0 0.0 0.0 0.0 0.0 0.0 0.0 0.0 0.0 0.0 0.0 0.0 0.0 0.0 0.0 0.0 0.0 0.0 0.0 0.0 0.0 0.0 0.0 0.0 0.0 0.0 0.0 0.0 0.0 0.0 0.0 0.0 0.0 0.0 0.0 0.0 0.0 0.0 0.0 0.0 0.0 0.0 0.0 0.0 0.0 0.0 0.0 0.0 0.0 0.0 0.0 0.0 0.0 0.0 0.0 0.0 0.0 0.0 0.0 0.0 0.0 0.0 0.0 0.0 0.0 0.0 0.0 0.0 0.0 0.0 0.0 0.0 0.0 0.0 0.0 0.0 0.0 0.0 0.0 0.0 0.0
0.0616 71.3569 0.015 -159.913077 83.265143 -154.272964 -3.36378 -0.035771 -89.391436 3.773499 1.757372 88.631898 -11.207715 15.718092 -9.327774 16.716596 -11.667264 -30.71549 0.003425 -0.0 -0.000245 -0.002296 0.0 -0.000397 4.10378 -55.789259 -11.181188 105.687554 42.275611 -73.009236 171.23904 5.321499 111.651722 173.097942 -9.883164 144.558344 -176.927804 -14.532312 89.659726 179.253221 -16.99102 97.641308 -159.044402 -31.306514 122.653899 145.810011 -67.306409 86.312568 7.904545 -24.807522 -3.013971 -172.172164 -31.331679 144.08013 -0.013782 -1.322988 -0.416967 9.460319 11.538731 1.487743 13.634108 46.898617 11.156224 -148.692415 13.375197 -143.716264 -4.208897 -43.443079 8.384335 36.719375 -49.724254 105.92571 -12.936771 -49.15587 52.867079 -149.022733 -40.534732 -137.337869 12.927059 12.05116 -3.310636 14.403853 12.417658 -19.061247 -8.875864 -15.576801 4.124265 -72.8037 -56.570484 -23.015491 166.118483 -24.039591 -145.07892 159.493651 6.335983 -141.442577 145.123287 1.120843 179.482155 -11.504791 58.799431 1.654598 11.663265 -23.130617 11.070733 23.927392 -41.352564 25.106204 -179.987163 75.747878 -0.008783 170.177959 50.233177 -124.609443 -20.012669 -30.169397 124.389806 145.230372 -25.807631 0.145863 -0.004632 7e-05 -0.002316 4.997985 -16.685027 61.886683 30.820533 18.201029 -124.907382 20.540131 21.313307 65.699348
0.0931 71.34519999999999 0.0161 -159.889021 83.320069 -154.30317 -3.421792 -0.027259 -90.012831 3.732931 1.934223 89.024909 -15.918872 18.922918 -39.547515 25.488588 -0.104803 -1.290004 -0.000255 0.0 -0.001118 -0.00018 -0.0 0.002488 -151.981149 14.727615 157.381517 68.981122 -59.526824 115.1335 -91.593944 68.238525 30.184654 153.959266 -49.130215 133.153466 -0.491488 0.484681 0.078003 -41.869338 27.169677 37.838713 -0.327464 0.529923 0.18627 38.245847 -35.243277 2.734825 -17.370259 35.631612 12.956493 -88.608544 64.040194 80.464987 -74.389439 -72.1331 -91.483976 -75.483645 83.301638 93.301963 39.961927 85.642674 -0.874647 -147.194144 7.830332 -141.690616 -4.239859 -44.742751 8.647297 56.399963 -43.096759 120.289093 165.442013 23.477647 160.794033 3.995073 38.09556 -4.647864 -11.109674 -11.092331 0.640446 -17.967624 -43.986178 22.944974 -159.63986 -69.97293 -102.39517 -131.51535 -68.12624 -70.280991 0.569932 1.648637 -0.321156 34.365353 55.162381 -28.972686 145.09936 -1.520958 178.649863 152.265801 -24.94864 175.356786 145.173738 12.067658 141.82272 41.701241 -48.478457 42.350429 -0.0 -0.000475 -0.000425 -8.018776 -25.257526 170.938901 22.181882 -43.023555 68.532424 31.477626 -12.727113 136.579539 0.000206 -0.000475 -0.000265 7.029149 -16.524547 -57.746328 -29.076836 16.142265 42.427455 66.997382 22.053777 3.912757
0.1242 71.3349 0.0146 -159.907313 83.368775 -154.38113 -3.470878 0.024245 -89.937633 3.723196 2.048717 88.749539 -16.012295 31.50454 -117.507734 16.428885 30.645488 74.130329 0.001753 -0.0 -0.000755 -0.003958 0.0 -0.001088 -14.148114 43.061589 15.996449 -91.580393 11.0663 141.003989 178.631479 -8.296933 -146.701661 -9.746177 28.378254 1.394213 -169.149274 -6.830313 89.916265 178.439881 -17.778593 93.368234 -0.966333 1.551558 0.554205 10.586351 1.23708 -0.356484 -36.038205 51.722315 29.83321 10.049817 -20.32616 -1.444228 -0.000483 0.06365 0.020879 -78.280117 78.780797 91.692871 5.663063 16.87212 5.088312 -80.858064 -54.459106 -80.127541 -0.071158 -0.427813 0.094633 -80.599524 3.998591 -4.007685 -178.095336 -5.444684 -117.76191 -148.974228 -40.636802 -137.25037 -71.831313 -48.263328 -25.791995 29.028317 6.485168 8.30139 173.762444 -52.873154 -119.823764 6.830811 33.55349 -2.335186 -6.532827 -20.414992 2.717549 25.279263 49.197934 -20.693449 31.709911 -66.108464 46.284797 -14.582244 -1.725185 3.552363 158.213536 60.369528 150.799954 44.817032 -49.623588 44.50932 -0.0 0.001399 0.001615 -8.262623 -25.204035 161.169951 14.417109 -39.565553 -57.097313 6.370505 72.343632 -94.441414 -0.0 -0.001494 -0.000799 5.996406 -18.180281 -180.0 3.485534 -36.063639 133.236483 61.167274 48.786069 19.176169
0.158 71.3253 0.010799999999999999 -159.995771 83.404022 -154.531754 -5.895671 2.470845 0.008774 4.559399 -6.059525 -1.037214 0.32521 32.103893 145.711531 -20.507158 20.770959 173.953506 -0.000317 0.0 -0.002804 -0.000317 0.0 -0.002804 -130.419888 54.549327 134.288032 -84.340765 16.909139 76.5903 73.066785 32.215309 -85.789663 -161.300318 51.902731 135.736964 176.506199 -20.695274 88.628968 -156.55897 4.982555 86.814898 176.552348 -61.588946 114.665245 -6.62549 33.518097 3.058157 0.54234 -1.589732 -0.295046 -88.701048 64.082651 80.422874 -145.119598 0.226995 -179.198762 -76.148811 -77.980747 -97.6633 -132.161071 -18.6549 -129.69293 17.318592 43.713171 6.298636 155.460151 -3.227938 -161.777091 121.866488 -87.648668 63.921695 -135.556654 23.558791 -171.218036 -175.460688 23.212214 -154.475086 89.136057 38.427628 -50.29924 -108.470069 -52.787894 -46.681743 124.892867 21.790078 -105.250113 13.525805 31.797286 -2.593376 86.294969 60.961906 -77.857512 155.249582 16.68683 -139.434108 72.132461 72.9742 -89.989901 80.94198 83.195165 -89.870496 -17.313424 60.660637 -12.799077 77.647365 -54.246163 76.366325 -179.999318 75.749983 -0.000703 168.248835 52.002325 9.165745 -3.116534 34.932485 60.863594 35.219366 -76.583598 -52.72582 0.0 0.000761 -0.000109 4.900834 -16.456197 63.557561 30.685253 15.575491 -109.815862 72.525351 45.258797 6.697201
0.1859 71.3164 0.0083 -160.154262 83.42773 -154.753139 -5.927915 2.518825 0.013809 4.666902 -6.020806 -1.200089 -18.362233 27.03194 -89.097681 22.575335 22.865162 45.152465 -0.002633 0.0 -0.001725 -0.002073 0.0 -0.002262 0.118142 -0.713978 -0.158534 -102.338821 -3.497073 -176.043445 -0.393745 5.718903 -68.998453 166.38716 -28.609018 141.643233 1.842811 -1.826987 -0.25395 -3.52298 3.821367 1.74374 -145.339112 -6.264769 118.676822 -23.795386 44.70386 11.474511 -39.288088 53.366379 32.877705 -153.879766 19.991287 138.629449 -0.000255 -0.018388 -0.006622 -155.406255 -1.038241 171.971063 -157.308469 57.179368 -150.509035 -26.106865 -40.332897 -26.568829 159.220893 -48.028562 -170.414799 52.808017 -5.365386 41.619221 -3.581076 -24.185439 59.789837 -142.696678 -47.109395 -131.596786 159.652217 2.600582 -88.800616 -4.445969 -49.594694 -16.102499 -37.217147 -57.917391 0.643113 82.340984 50.642066 -68.722288 0.056796 0.168022 -0.032023 17.943407 42.274614 -14.396098 0.015952 -1.322933 0.417274 -7.558472 26.548539 -4.021975 87.573858 -50.205586 85.929779 -51.73002 82.740855 13.464768 179.996555 75.750288 0.00304 168.469801 49.760602 -180.0 24.051178 -35.232989 134.148741 159.242003 -9.325037 -57.822594 179.998582 75.750288 0.001463 -168.770458 59.444362 -9.588854 -0.245634 32.859137 -33.23905 -9.887037 -33.072847 50.572895
0.2063 71.3082 0.009600000000000001 -160.274707 83.443925 -154.933684 -3.566198 0.098343 -91.577569 3.468974 2.470883 89.878494 -14.480308 17.176038 -27.93346 22.744619 -0.289241 -14.250637 -8e-06 -0.0 0.002524 -8e-06 -0.0 0.002524 -155.613975 -4.236482 161.990819 130.470016 -8.691038 167.137322 175.501051 7.092916 108.904889 171.781995 -14.642073 143.998082 6.463424 -6.452773 -0.634538 -78.009874 28.828682 69.388302 25.697552 -44.692061 -5.230428 0.275578 21.561732 3.288061 -4.103019 11.116884 2.53676 -163.217302 -4.717636 143.339627 -69.014248 72.940705 86.71977 -159.511435 -14.898917 178.095165 3.653646 10.39565 3.321599 -137.317047 -15.283692 -134.8685 143.191002 39.036591 -147.622052 84.814375 18.51887 -47.654434 5.683301 -36.909905 64.512778 -130.655707 -55.106983 -120.425959 12.925706 12.051932 -3.309716 113.596369 -8.485795 -101.012311 46.208188 39.652601 -36.318852 102.515093 46.776234 -77.143686 -89.034371 -81.394304 -59.758276 172.388081 -31.322318 -143.868689 145.120214 0.185237 179.187208 -12.005324 33.174255 5.241233 125.807088 -27.876188 123.550141 80.141439 -52.859095 80.405257 0.0 0.000785 -0.001037 -7.910427 -22.90381 -3.240802 -16.828524 35.562839 -49.617461 93.544346 36.14414 -4.451175 -0.0 -0.000321 -0.000757 5.916907 -15.670943 -0.0 9.942126 40.982703 98.396778 -91.08014 67.600602 -4.121326
0.2238 71.29990000000001 0.0126 -160.230456 83.455402 -154.946558 -3.556529 0.205273 -89.694794 3.592262 2.465594 87.830681 -17.047635 29.839739 -107.504142 14.669033 28.390924 64.582588 -0.003284 0.0 -0.003222 -0.004335 -0.0 0.0048 -153.590336 -75.693336 -178.260006 -67.897449 -31.739964 -62.607104 2.672315 0.880051 -70.752205 168.077311 -24.851199 142.447052 81.276401 -49.995827 32.239908 -138.189352 15.389988 103.495245 -151.353706 -17.158805 121.13183 -161.235733 -15.490424 119.615053 -166.118034 -24.039825 145.07815 -1.457181 12.585504 2.54838 -145.118798 0.310262 -179.225404 -66.99056 87.686218 80.236327 -145.173095 12.06818 -141.821937 -80.678882 -52.559761 -80.187818 -3.192195 -25.838903 5.073917 -75.776525 0.978407 20.429599 -0.936195 21.436202 -27.675503 8.130075 48.728374 -5.663912 0.492464 0.484269 -0.078079 30.146943 23.543225 -26.99509 148.887143 -12.609968 -120.243725 47.822507 55.082237 -32.724153 -173.121395 -66.297662 -137.610884 148.184529 31.521872 -134.220378 0.020597 -1.725114 0.542759 154.094667 12.762338 -170.108457 -5.663075 16.872125 -5.088253 -35.56097 80.510099 -0.488655 -0.0 -0.000998 -0.002051 -6.838694 -24.406712 -110.721838 -44.223162 -18.664751 -92.240361 179.006933 14.120797 178.30603 179.999302 75.750587 -0.0 -168.62482 59.569785 -13.133625 -7.941923 39.209338 -98.191405 -39.276975 65.837929 135.279839
